<svg fill="#000000" xmlns="http://www.w3.org/2000/svg"  viewBox="0 0 32 32" width="32px" height="32px"><path d="M 16 3 C 13.917969 3 12.460938 3.554688 11.53125 4.15625 C 10.863281 4.585938 10.71875 4.878906 10.53125 5.125 C 10.523438 5.132813 10.503906 5.148438 10.5 5.15625 C 10.464844 5.175781 9.683594 5.566406 8.875 6.1875 C 8.460938 6.507813 8.046875 6.871094 7.6875 7.3125 C 7.328125 7.753906 7 8.292969 7 9 C 7 9.929688 7.382813 10.644531 7.75 11.125 C 7.324219 11.949219 7.164063 12.652344 7.09375 13.1875 C 5.945313 13.410156 5 14.292969 5 15.5 C 5 16.550781 5.664063 17.476563 6.59375 17.84375 C 6.535156 17.898438 6.464844 17.941406 6.40625 18 L 4.8125 19.8125 L 5.5 20.40625 L 4 22 L 5.1875 22.5 L 4.5 24.9375 L 5.90625 25 L 6 27 L 7.5 26.90625 L 8.6875 28.5 L 9.6875 27.90625 L 11 29 L 12.3125 28.3125 L 13.5 29 L 14.90625 28.59375 L 15.90625 28.96875 L 15.9375 28.96875 L 16 29 L 16 28.96875 L 17 28.59375 L 18.40625 29 L 19.59375 28.3125 L 21 29 L 22.3125 27.90625 L 23.3125 28.5 L 24.5 26.90625 L 26 27 L 26 25.09375 L 27.3125 25.0625 L 26.6875 22.59375 L 28 22 L 26.5 20.40625 L 27.1875 19.8125 L 25.59375 18 C 25.535156 17.941406 25.464844 17.898438 25.40625 17.84375 C 26.335938 17.476563 27 16.550781 27 15.5 C 27 14.292969 26.054688 13.410156 24.90625 13.1875 C 24.835938 12.652344 24.675781 11.949219 24.25 11.125 C 24.617188 10.644531 25 9.929688 25 9 C 25 8.292969 24.671875 7.753906 24.3125 7.3125 C 23.953125 6.871094 23.539063 6.507813 23.125 6.1875 C 22.316406 5.566406 21.535156 5.175781 21.5 5.15625 C 21.5 5.15625 21.46875 5.125 21.46875 5.125 C 21.28125 4.878906 21.136719 4.585938 20.46875 4.15625 C 19.539063 3.554688 18.082031 3 16 3 Z M 16 5 C 17.730469 5 18.757813 5.445313 19.375 5.84375 C 19.992188 6.242188 20.125 6.5 20.125 6.5 L 20.28125 6.75 L 20.53125 6.875 C 20.53125 6.875 21.199219 7.261719 21.875 7.78125 C 22.210938 8.042969 22.546875 8.34375 22.75 8.59375 C 22.953125 8.84375 23 9.023438 23 9 C 23 9.148438 22.960938 9.261719 22.9375 9.375 C 21.585938 8.058594 19.398438 7 16 7 C 12.601563 7 10.414063 8.058594 9.0625 9.375 C 9.039063 9.261719 9 9.148438 9 9 C 9 9.023438 9.046875 8.84375 9.25 8.59375 C 9.453125 8.34375 9.789063 8.042969 10.125 7.78125 C 10.800781 7.261719 11.46875 6.875 11.46875 6.875 L 11.71875 6.75 L 11.875 6.5 C 11.875 6.5 12.007813 6.242188 12.625 5.84375 C 13.242188 5.445313 14.269531 5 16 5 Z M 11.59375 9.9375 C 11.699219 9.988281 13.78125 11 16 11 C 18.21875 11 20.300781 9.988281 20.40625 9.9375 C 21.257813 10.40625 21.808594 10.988281 22.1875 11.5625 C 23.007813 12.800781 23 14 23 14 L 23 15 L 24.5 15 C 24.785156 15 25 15.214844 25 15.5 C 25 15.785156 24.785156 16 24.5 16 L 17.90625 16 C 17.90625 16 17.613281 17.097656 16.09375 17.1875 C 14.394531 17.1875 14.09375 16 14.09375 16 L 7.5 16 C 7.214844 16 7 15.785156 7 15.5 C 7 15.214844 7.214844 15 7.5 15 L 9 15 L 9 14 C 9 14 8.992188 12.800781 9.8125 11.5625 C 10.191406 10.988281 10.742188 10.40625 11.59375 9.9375 Z M 11 11 L 11 13 C 11.984375 13 12.6875 13.148438 13.21875 13.375 C 13.082031 13.546875 13 13.761719 13 14 C 13 14.550781 13.449219 15 14 15 C 14.25 15 14.480469 14.902344 14.65625 14.75 C 14.984375 15.398438 15 15.96875 15 15.96875 C 15 15.980469 15 16.03125 15 16.03125 L 16 16 L 17 16.03125 C 17 16.03125 17 15.980469 17 15.96875 C 17 15.96875 17.015625 15.398438 17.34375 14.75 C 17.519531 14.902344 17.75 15 18 15 C 18.550781 15 19 14.550781 19 14 C 19 13.761719 18.917969 13.546875 18.78125 13.375 C 19.3125 13.148438 20.015625 13 21 13 L 21 11 C 18.453125 11 16.855469 11.996094 16 13.125 C 15.144531 11.996094 13.546875 11 11 11 Z M 11 20 L 12 20 L 12 24 L 11 24 C 10.445313 24 10 23.554688 10 23 L 10 21 C 10 20.445313 10.445313 20 11 20 Z M 14 20 L 18 20 L 18 24 L 14 24 Z M 20 20 L 21 20 C 21.554688 20 22 20.445313 22 21 L 22 23 C 22 23.554688 21.554688 24 21 24 L 20 24 Z"/></svg>