<svg fill="#000000" xmlns="http://www.w3.org/2000/svg"  viewBox="0 0 32 32" width="32px" height="32px"><path d="M 16 4 C 11.296875 4 8.175781 5.488281 6.34375 7.6875 C 4.511719 9.886719 4 12.648438 4 15.09375 C 4 17.757813 5.5 19.664063 7 20.90625 C 7.75 21.527344 8.5 22 9.125 22.375 C 9.71875 22.734375 10.179688 23.046875 10.28125 23.125 C 10.429688 23.375 11.457031 28 16 28 C 20.542969 28 21.570313 23.375 21.71875 23.125 C 21.828125 23.039063 22.28125 22.738281 22.875 22.375 C 23.496094 21.992188 24.28125 21.5 25.03125 20.875 C 26.527344 19.625 28 17.714844 28 15.09375 C 28 12.648438 27.488281 9.886719 25.65625 7.6875 C 23.824219 5.488281 20.703125 4 16 4 Z M 16 6 C 20.296875 6 22.675781 7.265625 24.09375 8.96875 C 25.511719 10.671875 26 12.9375 26 15.09375 C 26 16.972656 24.972656 18.296875 23.71875 19.34375 C 23.09375 19.867188 22.441406 20.289063 21.84375 20.65625 C 21.246094 21.023438 20.773438 21.269531 20.34375 21.65625 L 20.28125 21.6875 L 20.25 21.71875 C 18.578125 23.578125 19.398438 26 16 26 C 12.601563 26 13.421875 23.578125 11.75 21.71875 L 11.71875 21.6875 L 11.65625 21.65625 C 11.222656 21.265625 10.75 21.015625 10.15625 20.65625 C 9.5625 20.296875 8.875 19.890625 8.25 19.375 C 7 18.339844 6 17.03125 6 15.09375 C 6 12.9375 6.488281 10.671875 7.90625 8.96875 C 9.324219 7.265625 11.703125 6 16 6 Z M 9.34375 11.03125 C 9.109375 11.027344 8.882813 11.042969 8.6875 11.0625 C 8.492188 11.082031 8.320313 11.117188 8.15625 11.15625 C 7.992188 11.195313 7.894531 11.105469 7.5 11.5 C 7.105469 11.894531 7.195313 11.992188 7.15625 12.15625 C 7.117188 12.320313 7.082031 12.492188 7.0625 12.6875 C 7.023438 13.078125 7.035156 13.558594 7.09375 14.09375 C 7.210938 15.164063 7.566406 16.472656 8.59375 17.5 C 9.636719 18.542969 10.988281 18.867188 12.0625 18.96875 C 12.601563 19.019531 13.070313 19.03125 13.4375 19 C 13.621094 18.984375 13.800781 18.964844 13.9375 18.9375 C 14.007813 18.925781 14.046875 18.898438 14.125 18.875 C 14.164063 18.863281 14.21875 18.871094 14.28125 18.84375 C 14.34375 18.816406 14.40625 18.78125 14.59375 18.59375 L 14.71875 18.5 L 14.78125 18.34375 C 14.941406 18.019531 14.914063 18.011719 14.9375 17.875 C 14.960938 17.738281 14.984375 17.589844 15 17.40625 C 15.03125 17.035156 15.019531 16.5625 14.96875 16.03125 C 14.867188 14.96875 14.535156 13.628906 13.5 12.59375 C 12.472656 11.566406 11.164063 11.210938 10.09375 11.09375 C 9.824219 11.066406 9.578125 11.035156 9.34375 11.03125 Z M 22.65625 11.03125 C 22.421875 11.035156 22.175781 11.066406 21.90625 11.09375 C 20.847656 11.207031 19.554688 11.558594 18.53125 12.5625 C 18.523438 12.570313 18.539063 12.585938 18.53125 12.59375 C 18.527344 12.597656 18.503906 12.589844 18.5 12.59375 C 17.460938 13.589844 17.128906 14.933594 17.03125 16 C 16.980469 16.539063 16.96875 17 17 17.375 C 17.015625 17.5625 17.039063 17.738281 17.0625 17.875 C 17.085938 18.011719 17.050781 18.003906 17.21875 18.34375 L 17.28125 18.5 L 17.40625 18.59375 C 17.59375 18.78125 17.65625 18.816406 17.71875 18.84375 C 17.78125 18.871094 17.835938 18.863281 17.875 18.875 C 17.953125 18.898438 17.992188 18.925781 18.0625 18.9375 C 18.199219 18.964844 18.378906 18.984375 18.5625 19 C 18.929688 19.03125 19.398438 19.019531 19.9375 18.96875 C 21.011719 18.867188 22.363281 18.542969 23.40625 17.5 C 24.433594 16.472656 24.789063 15.164063 24.90625 14.09375 C 24.964844 13.558594 24.976563 13.078125 24.9375 12.6875 C 24.917969 12.492188 24.882813 12.320313 24.84375 12.15625 C 24.804688 11.992188 24.894531 11.894531 24.5 11.5 C 24.105469 11.105469 24.007813 11.195313 23.84375 11.15625 C 23.679688 11.117188 23.507813 11.082031 23.3125 11.0625 C 23.117188 11.042969 22.890625 11.027344 22.65625 11.03125 Z M 9.4375 13.03125 C 9.574219 13.027344 9.714844 13.046875 9.875 13.0625 C 10.652344 13.148438 11.523438 13.429688 12.09375 14 C 12.65625 14.5625 12.925781 15.433594 13 16.21875 C 13.027344 16.515625 13.011719 16.765625 13 17 C 12.773438 17.007813 12.542969 17.027344 12.25 17 C 11.449219 16.925781 10.558594 16.652344 10 16.09375 C 9.429688 15.523438 9.148438 14.652344 9.0625 13.875 C 9.027344 13.558594 9.050781 13.292969 9.0625 13.0625 C 9.175781 13.054688 9.300781 13.035156 9.4375 13.03125 Z M 22.5625 13.03125 C 22.699219 13.035156 22.824219 13.054688 22.9375 13.0625 C 22.949219 13.292969 22.972656 13.558594 22.9375 13.875 C 22.851563 14.652344 22.570313 15.523438 22 16.09375 C 21.441406 16.652344 20.550781 16.925781 19.75 17 C 19.457031 17.027344 19.226563 17.007813 19 17 C 18.988281 16.753906 18.96875 16.503906 19 16.1875 C 19.074219 15.386719 19.339844 14.53125 19.875 14.03125 L 19.90625 14.03125 L 19.90625 14 C 20.476563 13.429688 21.347656 13.148438 22.125 13.0625 C 22.285156 13.046875 22.425781 13.027344 22.5625 13.03125 Z M 15.34375 19.875 C 15.132813 19.949219 14.3125 21.070313 14.3125 21.59375 C 14.3125 22.09375 14.605469 22.09375 14.90625 22.09375 C 15.207031 22.09375 15.40625 22.09375 15.40625 21.59375 L 15.40625 19.90625 C 15.40625 19.867188 15.375 19.863281 15.34375 19.875 Z M 16.5625 19.875 C 16.53125 19.863281 16.5 19.867188 16.5 19.90625 L 16.5 21.59375 C 16.5 22.09375 16.792969 22.09375 17.09375 22.09375 C 17.394531 22.09375 17.59375 22.09375 17.59375 21.59375 C 17.59375 21.070313 16.773438 19.949219 16.5625 19.875 Z"/></svg>