<svg fill="#000000" xmlns="http://www.w3.org/2000/svg"  viewBox="0 0 32 32" width="32px" height="32px"><path d="M 15 3 C 12.632813 3 10.867188 4.199219 9.71875 5.375 C 9.214844 5.144531 8.566406 5 7.6875 5 C 5.898438 5 4.554688 6.054688 3.875 7.28125 C 3.195313 8.507813 3 9.890625 3 11 C 3 12.667969 3.695313 13.847656 4.0625 14.375 C 4.035156 14.578125 4 14.785156 4 15 C 4 17.234375 4.5625 18.710938 5.1875 19.625 C 5.21875 19.671875 5.25 19.675781 5.28125 19.71875 C 4.546875 20.269531 4 21.023438 4 22 C 4 23.378906 5.035156 24.375 6.3125 24.71875 C 6.570313 25.175781 8.8125 29 14 29 C 19.503906 29 23.472656 23.984375 23.65625 23.75 C 23.910156 23.65625 24.390625 23.511719 25.125 22.90625 C 26.03125 22.160156 27 20.851563 27 19 C 27 17.269531 26.058594 16.136719 25.125 15.59375 L 27.25 13.90625 L 28.625 12.78125 L 29.5625 12 L 27.15625 9.0625 L 24.84375 10.9375 L 25.96875 12.34375 L 22.46875 15.125 C 22.097656 15.242188 21.597656 15.445313 21 15.84375 C 20.617188 15.609375 20.375 15.273438 20.21875 14.6875 C 20.15625 14.449219 20.09375 14.1875 20.0625 13.90625 C 20.269531 13.882813 20.457031 13.886719 20.6875 13.84375 C 21.113281 13.769531 21.539063 13.648438 21.96875 13.4375 C 22.183594 13.332031 22.417969 13.195313 22.625 12.96875 C 22.832031 12.742188 23 12.386719 23 12 C 23 11.355469 22.574219 10.871094 22.1875 10.59375 C 21.976563 10.441406 21.765625 10.320313 21.53125 10.21875 C 21.804688 9.582031 22 8.839844 22 8 C 22 6.796875 21.28125 5.6875 20.09375 4.71875 C 18.90625 3.75 17.160156 3 15 3 Z M 15 5 C 16.710938 5 17.96875 5.5625 18.8125 6.25 C 19.65625 6.9375 20 7.828125 20 8 C 20 8.613281 19.808594 9.175781 19.5625 9.65625 C 18.941406 9.527344 18.28125 9.425781 17.625 9.34375 C 17.066406 9.273438 16.523438 9.199219 16 9.15625 C 14.847656 9 13.707031 9 13 9 C 11.980469 9 9.933594 9.226563 7.96875 10.03125 C 6.984375 10.433594 6.039063 10.96875 5.28125 11.78125 C 5.222656 11.847656 5.183594 11.933594 5.125 12 C 5.0625 11.714844 5 11.386719 5 11 C 5 10.171875 5.1875 9.039063 5.625 8.25 C 6.0625 7.460938 6.609375 7 7.6875 7 C 7.996094 7 8.214844 7.035156 8.40625 7.0625 C 8.285156 7.261719 8.125 7.53125 8.125 7.53125 L 7.65625 8.40625 L 9.40625 9.34375 L 9.875 8.46875 C 9.875 8.46875 11.816406 5 15 5 Z M 12.96875 11 C 12.96875 11 13.515625 11.019531 14.34375 11.0625 C 14.734375 11.082031 15.121094 11.074219 15.53125 11.125 C 15.609375 11.132813 15.667969 11.148438 15.75 11.15625 C 15.984375 11.1875 16.21875 11.234375 16.4375 11.28125 C 17.015625 11.402344 17.492188 11.585938 17.75 11.75 C 18.007813 11.914063 18 11.921875 18 12 C 18 12.59375 18.019531 13.285156 18.09375 14 C 18.0625 13.996094 18.035156 14 18 14 C 17.449219 14 17 14.671875 17 15.5 C 17 16.328125 17.449219 17 18 17 C 18.320313 17 18.597656 16.761719 18.78125 16.40625 C 19.195313 17.082031 19.816406 17.648438 20.6875 17.9375 C 21.058594 18.066406 20.996094 18.144531 21.03125 18.34375 C 21.0625 18.527344 21.035156 18.691406 21.03125 18.71875 C 21.03125 18.722656 21.03125 18.75 21.03125 18.75 C 21.015625 18.796875 20.910156 19 20.625 19.3125 C 20.308594 19.65625 19.882813 20 19 20 C 18.117188 20 17.691406 19.65625 17.375 19.3125 C 17.058594 18.96875 16.9375 18.6875 16.9375 18.6875 L 16 19 L 9.78125 19 L 10.03125 20.1875 C 10.03125 20.1875 10.242188 21.300781 10.78125 22.4375 C 11.050781 23.003906 11.394531 23.59375 11.90625 24.09375 C 12.417969 24.59375 13.144531 25 14 25 C 14.855469 25 15.601563 24.554688 16.03125 24 C 16.460938 23.445313 16.679688 22.804688 16.8125 22.21875 C 16.871094 21.957031 16.90625 21.710938 16.9375 21.46875 C 17.5 21.769531 18.175781 22 19 22 C 20.453125 22 21.523438 21.34375 22.125 20.6875 C 22.726563 20.03125 22.9375 19.3125 22.9375 19.3125 L 22.96875 19.28125 L 22.96875 19.25 C 22.96875 19.25 23.113281 18.679688 23 18 C 22.953125 17.71875 22.824219 17.398438 22.625 17.09375 C 22.832031 17.027344 23.019531 17 23.03125 17 C 23.03125 17 23.0625 17 23.0625 17 C 23.117188 17 23.585938 17.015625 24.0625 17.25 C 24.570313 17.5 25 17.808594 25 19 C 25 20.191406 24.46875 20.882813 23.875 21.375 C 23.28125 21.867188 22.6875 22.0625 22.6875 22.0625 L 22.40625 22.125 L 22.21875 22.375 C 22.21875 22.375 18.289063 27 14 27 C 9.578125 27 7.90625 23.53125 7.90625 23.53125 L 7.625 23 L 7 23 C 6.433594 23 6 22.566406 6 22 C 6 21.433594 6.433594 21 7 21 L 8 21 L 8 19 L 7.3125 19 C 7.199219 18.914063 7 18.773438 6.8125 18.5 C 6.4375 17.949219 6 16.914063 6 15 C 6 14.214844 6.273438 13.667969 6.75 13.15625 C 7.226563 12.644531 7.945313 12.203125 8.75 11.875 C 10.339844 11.222656 12.261719 11.003906 12.96875 11 Z M 11.96875 12 C 11.96875 12 11.253906 12.027344 10.53125 12.40625 C 9.808594 12.785156 9 13.695313 9 15 L 11 15 C 11 14.394531 11.191406 14.300781 11.46875 14.15625 C 11.734375 14.019531 11.972656 14.003906 12 14 C 12.007813 14 12.023438 14 12.03125 14 C 12.511719 14.011719 13.058594 14.425781 13.5 14.96875 C 13.511719 14.980469 13.519531 14.988281 13.53125 15 L 12 15 L 12 17 L 16 17 L 16 15.21875 L 16.03125 15.21875 C 16.03125 15.21875 16.003906 15.164063 16 15.15625 L 16 15 L 15.90625 15 C 15.777344 14.757813 15.511719 14.277344 15.03125 13.6875 C 14.402344 12.914063 13.414063 12 12 12 Z M 12.375 21 L 14.90625 21 C 14.890625 21.316406 14.929688 21.40625 14.84375 21.78125 C 14.75 22.195313 14.585938 22.554688 14.4375 22.75 C 14.289063 22.945313 14.25 23 14 23 C 13.75 23 13.570313 22.90625 13.3125 22.65625 C 13.054688 22.40625 12.765625 21.996094 12.5625 21.5625 C 12.429688 21.285156 12.460938 21.253906 12.375 21 Z"/></svg>